inDegrees=no
num_controls=7
num_derivatives=13
num_iterations=83
num_multipliers=7
num_parameters=0
num_slacks=7
num_states=26
objective=0.334197
objective_accelerations=0.036721
objective_balance=0.001319
objective_effort=0.026918
objective_height=0.267768
objective_ligament=0.001470
solver_duration=841.462415
status=Solve_Succeeded
success=true
DataType=double
version=3
OpenSimVersion=4.5
endheader
time	/jointset/ground_pelvis/pelvis_tilt/value	/jointset/ground_pelvis/pelvis_tx/value	/jointset/ground_pelvis/pelvis_ty/value	/jointset/hip_r/hip_flexion_r/value	/jointset/hip_r/hip_adduction_r/value	/jointset/hip_r/hip_rotation_r/value	/jointset/back/lumbar_extension/value	/jointset/patellofemoral_r/patellar_flexion_r/value	/jointset/knee_r/knee_flexion_r/value	/jointset/knee_r/knee_adduction_r/value	/jointset/knee_r/knee_rotation_r/value	/jointset/ankle_r/ankle_angle_r/value	/jointset/subtalar_r/subtalar_angle_r/value	/jointset/ground_pelvis/pelvis_tilt/speed	/jointset/ground_pelvis/pelvis_tx/speed	/jointset/ground_pelvis/pelvis_ty/speed	/jointset/hip_r/hip_flexion_r/speed	/jointset/hip_r/hip_adduction_r/speed	/jointset/hip_r/hip_rotation_r/speed	/jointset/back/lumbar_extension/speed	/jointset/patellofemoral_r/patellar_flexion_r/speed	/jointset/knee_r/knee_flexion_r/speed	/jointset/knee_r/knee_adduction_r/speed	/jointset/knee_r/knee_rotation_r/speed	/jointset/ankle_r/ankle_angle_r/speed	/jointset/subtalar_r/subtalar_angle_r/speed	/forceset/tau_hip_flexion_r	/forceset/tau_hip_adduction_r	/forceset/tau_hip_rotation_r	/forceset/tau_knee_flexion_r	/forceset/tau_ankle_angle_r	/forceset/tau_subtalar_angle_r	/forceset/tau_lumbar_extension	lambda_cid13_p0	lambda_cid14_p0	lambda_cid14_p1	lambda_cid14_p2	lambda_cid14_p3	lambda_cid14_p4	lambda_cid14_p5	/jointset/ground_pelvis/pelvis_tilt/accel	/jointset/ground_pelvis/pelvis_tx/accel	/jointset/ground_pelvis/pelvis_ty/accel	/jointset/hip_r/hip_flexion_r/accel	/jointset/hip_r/hip_adduction_r/accel	/jointset/hip_r/hip_rotation_r/accel	/jointset/back/lumbar_extension/accel	/jointset/patellofemoral_r/patellar_flexion_r/accel	/jointset/knee_r/knee_flexion_r/accel	/jointset/knee_r/knee_adduction_r/accel	/jointset/knee_r/knee_rotation_r/accel	/jointset/ankle_r/ankle_angle_r/accel	/jointset/subtalar_r/subtalar_angle_r/accel	gamma_cid13_p0	gamma_cid14_p0	gamma_cid14_p1	gamma_cid14_p2	gamma_cid14_p3	gamma_cid14_p4	gamma_cid14_p5
1	-0.2777972252320689	-0.007614462540990574	0.6354385942800996	1.459114792737496	-0.2374615240639228	-0.09006672104076663	-0.7853973374734166	1.498110503510538	1.498110503510531	-0.1745148158874468	0.1729975657441181	0.4362356285436543	0.177441108753866	0.06866874966512597	0.006684114792303551	0.01599252418366063	-0.1020198053056716	-0.001458760883700118	0.0004195876317448852	-0.0001423262627932404	-0.01815551670663628	-0.01815551670663657	0.007335849272806602	-0.0001791361533150161	0.01481410342823203	0.004906448648575168	-0.3602633029056452	0.04673374219759469	0.007613746717124579	-0.4292029881630768	-0.04811071818869846	0.001813518632819557	0.3714648976598479	-0.04119907925500139	-67.48140066064636	-15.46957800615234	7.961679695738653	8.437025116864145	-770.4230800226069	54.56740853352721	1.406562249642375	0.1576980799522003	1.823166912211657	-5.552133527352282	0.2170847964629561	-0.2758354720552273	-0.02230307978166303	-4.989202149039972	-4.989202149039937	1.058823009297675	0.0309434082723259	-1.038166984611016	-0.1208361846936112	1.879254153090364e-09	9.899673507716169e-12	1.435947898921188e-08	1.169127251966745e-08	3.269351853512578e-09	-7.35180094963969e-09	2.787620623052623e-08
1.01	-0.2770410401790059	-0.007539560274354457	0.6356895860987368	1.457817709475884	-0.2374653992745285	-0.09007371671681642	-0.7853975349032272	1.497679851699291	1.497679851699291	-0.174385759060622	0.1729971109310776	0.4363320540107599	0.1774838960661547	0.0825523058447576	0.008317722776189701	0.03420946685737884	-0.1574159382297534	0.0006777453520436462	-0.001815662471986814	0.0002600294561583086	-0.06798258230099219	-0.06798258230099172	0.01848850436860607	9.058583381519738e-05	0.004496822439221079	0.003652745567726699	-0.3611439113565538	0.04680696985490107	0.00768545975110589	-0.4292572090618627	-0.04834070637117083	0.001800187552218978	0.3726304338638266	-0.04119378093053817	-67.59893168163939	-15.49640990171627	7.966486944472589	8.190703248759263	-771.2436008997402	54.56957586389111	1.376861474035979	0.1694003048171882	1.821499016690905	-5.5362147433746	0.2110446468335314	-0.1969066204116432	0.0950832717234612	-4.980620755465353	-4.98062075546522	1.145434183231671	0.02536310902406804	-1.024634400206991	-0.1273641737927916	7.330748826544205e-09	6.508333046201446e-09	4.428821316782001e-08	5.390210611960304e-08	2.561370173474583e-09	-1.50488560781565e-08	9.700454209816806e-08
1.02	-0.2761464977297637	-0.007447680298437204	0.6361228555584587	1.455966092571347	-0.2374480872008316	-0.09010297226209171	-0.7853889931011317	1.496750696833934	1.496750696833941	-0.1741447861981175	0.1729994286409222	0.4363260815194343	0.1775142009868333	0.09634022890088784	0.01007965664853111	0.052448052400651	-0.212926533891372	0.002778695975925354	-0.004032386210897229	0.001605520134697779	-0.1178561275286251	-0.117856127528624	0.02971905640482767	0.0003753684245741478	-0.005665488316222783	0.002409970326385202	-0.3620245198074546	0.04688019751220144	0.007757172785080324	-0.4293114299606504	-0.04857069455364757	0.001786856471605083	0.3737959700678116	-0.04119483655034463	-67.72355719608908	-15.51842408817262	7.963603806111654	7.942312416259215	-772.1885890766101	54.6129449545983	1.387435624942039	0.183363257643315	1.827495486122448	-5.575026074859676	0.209973674090528	-0.2721301990909886	0.1663239121357245	-4.998498075695339	-4.998498075695344	1.074402397382092	0.03395552899808148	-1.007172937897477	-0.1186506167921862	1.266298122153056e-08	1.601084811415077e-08	7.588810228560884e-08	9.646631328683975e-08	-4.907133181025815e-09	-2.060810636830978e-08	1.690009920416802e-07
1.03	-0.2751147995712079	-0.007337613770852564	0.6367384979632192	1.453559365578136	-0.2374099533450678	-0.09015430965524422	-0.7853620706309824	1.495322639865746	1.495322639865755	-0.1737911161777695	0.1730047140346803	0.4362189817001442	0.1775319710192086	0.1099579511149664	0.01194774347883764	0.07067189513026745	-0.2683804268381882	0.004841010508880132	-0.006229966102876018	0.003958686921221095	-0.1677563197387834	-0.1677563197387833	0.04103116630373092	0.0006882851011514726	-0.01575649901231588	0.001129391767037525	-0.362667588119462	0.0469842867448264	0.007857680585086482	-0.4288118401656805	-0.04924503048429262	0.001802812269034542	0.3747301579393277	-0.04121267261335076	-67.9642195620448	-15.53316643687991	7.942576940111154	7.9275159653463	-772.6771120932258	54.60067149941023	1.342728275640101	0.1906430528743484	1.81854339055644	-5.524800074167521	0.2033186152102902	-0.1927916050626468	0.2967700149799091	-4.985941469170583	-4.985941469170692	1.162045167728985	0.03098334381663718	-1.010368536450997	-0.1349247094622671	1.799399665449174e-08	2.554401707694966e-08	1.075050440048179e-07	1.39034126306804e-07	-1.244462145057178e-08	-2.614554232337771e-08	2.410267084553544e-07
1.04	-0.2739481666393107	-0.007208444043534705	0.6375361217401108	1.450599253821543	-0.2373514046895079	-0.0902274667914892	-0.7853062251023267	1.493395548640356	1.493395548640368	-0.1733238390821018	0.1730133333165673	0.4360109110936812	0.1775365026192	0.1233271835690183	0.01390029659517534	0.08884432682688734	-0.3236034865680006	0.00686165593432705	-0.008396334827305745	0.007390131830510219	-0.2176629789687206	-0.2176629789687214	0.05244047146601434	0.001042146050892965	-0.02585964574783801	-0.0002377161505583968	-0.3633106564314681	0.04708837597744869	0.0079581883850691	-0.4283122503707136	-0.04991936641493939	0.001818768066458744	0.3756643458108445	-0.04123690387808645	-68.21203574606078	-15.54304623021706	7.913789451906864	7.90868945183071	-773.2926902989337	54.62964547574506	1.337737672936648	0.2002565148496159	1.817213279523144	-5.528859431458956	0.2016398525889357	-0.2658879655811855	0.3819795366887332	-4.999791479651068	-4.999791479651065	1.093841450058133	0.04214438363092989	-1.009600145783155	-0.1359564884418092	2.30738148799667e-08	3.33858177346012e-08	1.351943781854757e-07	1.794221079529639e-07	-1.716011990309562e-08	-3.18629751841621e-08	3.054753530268237e-07
1.05	-0.2726489975207184	-0.007059312651988134	0.6385151513086487	1.447088116040403	-0.2372728641259074	-0.09032213395799235	-0.7852108289687787	1.490969446207892	1.4909694462079	-0.1727420047209005	0.173025660358467	0.4357016901917829	0.1775268907729447	0.1364716214171063	0.0159414762295497	0.1069467339302259	-0.3785785590902274	0.008839208811874423	-0.0105263569636402	0.0118561027561397	-0.2675496405608472	-0.2675496405608464	0.06394581893316341	0.001424659869896077	-0.03599247324666426	-0.001702588569688754	-0.3635761353700798	0.04716364146498601	0.008119772238518379	-0.4275854388449583	-0.05044103051007627	0.001812304197740158	0.3763013604775214	-0.04126922809707635	-68.38506139026174	-15.54817884109232	7.882659275956777	7.868493834774969	-773.4934970218633	54.62416454457279	1.297552506847636	0.208368460975531	1.804518908174095	-5.474996583787908	0.1947542900669217	-0.1849296533887823	0.503957051743672	-4.981929134832946	-4.981929134832693	1.181789068897138	0.03657303268831441	-1.016314292389744	-0.1543912769177922	2.814578319270771e-08	4.117476313271689e-08	1.627609746305538e-07	2.197419698686923e-07	-2.178743117383752e-08	-3.758603294825013e-08	3.696872141032241e-07
1.06	-0.2712194328904232	-0.006889305509448853	0.6396747578447067	1.44302859444981	-0.2371747597765811	-0.09043777540901463	-0.785065762889718	1.488044712032338	1.488044712032339	-0.1720445353502431	0.1730418661688848	0.4352909029668019	0.1775021024708451	0.149406285909305	0.01807544679371744	0.1249597203309549	-0.4332802484597877	0.01077441307859146	-0.01259119172914072	0.01732412093151068	-0.317389327586553	-0.3173893275865507	0.07556747335446452	0.001817899755032728	-0.04617291036378432	-0.003273007319584789	-0.3638416143086735	0.04723890695252248	0.008281356091935104	-0.4268586273192065	-0.05096269460521719	0.001805840329018735	0.3769383751442149	-0.04130807526846361	-68.56533823550248	-15.54839029873933	7.843672721444256	7.823406729442765	-773.8241711134806	54.66000657965243	1.295783001758724	0.2188147008083512	1.799329139001213	-5.474182800925687	0.1931701304228507	-0.2528504914144055	0.582388986636959	-4.990396566366894	-4.990396566366893	1.117102840888548	0.04428959685765536	-1.019122069441808	-0.1570657545949279	3.279221456850181e-08	4.843596027090383e-08	1.885147760812855e-07	2.579905656232066e-07	-2.630101550005701e-08	-4.250126214202681e-08	4.283084626469706e-07
1.07	-0.2696615306146705	-0.006697476752502637	0.6410139652366972	1.438423550104481	-0.2370575280006665	-0.09057392231866791	-0.7848610815290785	1.484621936446059	1.484621936446064	-0.1712304777443676	0.1730620567615303	0.4347780368145913	0.1774610469500767	0.1621406494755717	0.02030758287336141	0.1428585287350908	-0.4876681246150487	0.01266391544194004	-0.01463570831038199	0.02377472475286543	-0.3671454363767755	-0.3671454363767749	0.08725201359570162	0.002219552810098965	-0.05641197311054376	-0.004958833420530363	-0.3637196254315526	0.04727795046950438	0.008494974091498578	-0.4258668487732113	-0.05133098546514137	0.001779721950968022	0.3772680148595404	-0.04135425459508082	-68.66709453485559	-15.54136675467602	7.801222881736227	7.747200608892795	-773.6984086673716	54.65752133800638	1.257246240197393	0.2279985779147611	1.781662747728377	-5.412005018836903	0.1856748164710098	-0.179854748905141	0.7007821131893693	-4.965172590031915	-4.96517259003215	1.195317691364686	0.03808159622612562	-1.028045416110168	-0.1773827379588456	3.741601100084128e-08	5.566908569313712e-08	2.141721522663604e-07	2.961289876457414e-07	-3.08085505207168e-08	-4.737352173099969e-08	4.86632338183661e-07
1.08	-0.2679772880620262	-0.006482809531485409	0.6425314619240504	1.433276443998402	-0.2369216342956783	-0.0907304348956277	-0.7845870169235619	1.480702208860941	1.480702208860946	-0.1702993371209412	0.1730862595720036	0.4341624306271481	0.1774025248282767	0.1746743412873072	0.02264313960791961	0.1606175794035622	-0.5416926006107342	0.01450679889249236	-0.01666432518866697	0.03120076990640335	-0.4167797273542772	-0.4167797273542783	0.09898407686187281	0.00262034332096693	-0.06672091740998794	-0.006766327526054726	-0.3635976365544239	0.04731699398648648	0.00870859209101886	-0.424875070227221	-0.0516992763250674	0.001753603572917843	0.377597654574873	-0.04140708533632104	-68.77622841991293	-15.52942650604121	7.750897187074191	7.665473576460338	-773.7055803467828	54.69610380131055	1.255648650852419	0.2394988317912506	1.771377591868337	-5.401502769010637	0.1838463478635829	-0.2496705508231549	0.7774772530735454	-4.96603300382271	-4.966033003822711	1.126607445875383	0.04411708801802169	-1.033098379978659	-0.1813993555106732	4.098438655235008e-08	6.102757404725881e-08	2.332368981048403e-07	3.261927792911238e-07	-3.404854723000556e-08	-5.114069118464168e-08	5.293252608398659e-07
